<?xml version="1.0" encoding="iso-8859-1"?>
<!-- Generator: Adobe Illustrator 19.0.0, SVG Export Plug-In . SVG Version: 6.00 Build 0)  -->
<svg version="1.1" id="Capa_1" xmlns="http://www.w3.org/2000/svg" xmlns:xlink="http://www.w3.org/1999/xlink" x="0px" y="0px"
	 viewBox="0 0 411.143 411.143" style="enable-background:new 0 0 411.143 411.143;" xml:space="preserve">
<g>
	<g>
		<path d="M350.208,54.532H61.44C27.648,54.532,0,82.179,0,115.972v179.2c0,33.792,27.648,61.44,61.44,61.44h288.256
			c33.792,0,61.44-27.648,61.44-61.44v-179.2C411.648,82.179,384,54.532,350.208,54.532z M287.744,210.692
			c-1.024,1.536-2.048,2.56-3.584,3.584l-119.296,70.656c-5.12,3.072-11.264,1.024-13.824-3.584
			c-1.024-1.536-1.536-3.072-1.536-5.12V134.916c0-5.632,4.608-10.24,10.24-10.24c1.536,0,3.584,0.512,5.12,1.536l119.296,70.656
			C288.768,199.939,290.816,206.083,287.744,210.692z"/>
	</g>
</g>
<g>
</g>
<g>
</g>
<g>
</g>
<g>
</g>
<g>
</g>
<g>
</g>
<g>
</g>
<g>
</g>
<g>
</g>
<g>
</g>
<g>
</g>
<g>
</g>
<g>
</g>
<g>
</g>
<g>
</g>
</svg>
